<svg xmlns="http://www.w3.org/2000/svg" viewBox="0 0 240 268" role="img" aria-label="Trench Motors">
  <title>Trench Motors</title>
  <defs>
    <linearGradient id="chrome" x1="0" y1="0" x2="0" y2="1">
      <stop offset="0" stop-color="#f5f6f8"/>
      <stop offset="0.45" stop-color="#bcc1c9"/>
      <stop offset="0.5" stop-color="#868c96"/>
      <stop offset="0.56" stop-color="#d2d6dc"/>
      <stop offset="1" stop-color="#7c828b"/>
    </linearGradient>
  </defs>
  <g fill="none" stroke="url(#chrome)" stroke-linecap="round" stroke-linejoin="round">
    <path d="M34,58 Q34,40 52,40 H188 Q206,40 206,58 V150 Q206,176 184,193 L130,244 Q120,252 110,244 L56,193 Q34,176 34,150 Z" stroke-width="7"/>
    <path d="M50,68 Q50,52 64,52 H176 Q190,52 190,68 V146 Q190,168 172,183 L128,225 Q120,231 112,225 L68,183 Q50,168 50,146 Z" stroke-width="3"/>
    <path d="M62,150 C60,140 66,134 76,132 C96,127 106,124 118,114 C126,107 134,103 146,104 C158,105 167,111 173,122 C177,129 180,138 182,147" stroke-width="5"/>
    <path d="M86,150 C100,146 150,146 168,150" stroke-width="4"/>
    <circle cx="92" cy="150" r="14" stroke-width="5"/>
    <circle cx="160" cy="150" r="14" stroke-width="5"/>
  </g>
  <g fill="url(#chrome)">
    <circle cx="92" cy="150" r="4"/>
    <circle cx="160" cy="150" r="4"/>
  </g>
  <rect x="104" y="170" width="32" height="7" rx="2" fill="#d61f28"/>
  <text x="120" y="206" text-anchor="middle" font-family="Saira, 'Arial Black', Arial, sans-serif" font-size="38" font-weight="800" letter-spacing="2" fill="url(#chrome)">TRENCH</text>
  <text x="120" y="230" text-anchor="middle" font-family="Saira, Arial, sans-serif" font-size="16" font-weight="600" letter-spacing="9" fill="#c8cace">MOTORS</text>
</svg>
